<svg width="32" height="32" viewBox="0 0 32 32" fill="none" xmlns="http://www.w3.org/2000/svg">
<path d="M27.9383 5.96589C27.9366 5.72922 27.8991 5.48839 27.8416 5.25839C27.4591 3.71172 26.1816 2.72922 24.5291 2.72172C22.5433 2.71339 20.5583 2.72005 18.5724 2.72005C14.1958 2.72005 9.81994 2.71589 5.44327 2.72172C3.43661 2.72422 1.99327 4.14339 1.99161 6.11505C1.98661 12.0626 1.98827 18.0101 1.99411 23.9576C1.99411 24.2351 2.02411 24.5201 2.08994 24.7892C2.45911 26.3109 3.73161 27.3267 5.33327 27.3326C9.14827 27.3476 12.9633 27.3376 16.7791 27.3376C16.8399 27.3376 16.9016 27.3284 17.0116 27.3201C17.0116 27.2151 17.0174 27.1334 17.0108 27.0534C16.9274 26.0192 17.2283 25.0992 17.7541 24.2117C19.0024 22.1026 20.2058 19.9667 21.4433 17.8509C21.7608 17.3067 22.0749 16.7784 21.9608 16.1126C21.9583 16.0959 21.9749 16.0759 21.9966 16.0234C22.4941 16.1851 22.6299 15.7892 22.8149 15.4617C22.8608 15.3809 22.9074 15.3001 22.9541 15.2184C23.1741 14.8351 23.3941 14.4526 23.6433 14.0201H21.9791V10.0517H25.9366C25.9449 10.2134 25.9516 10.3609 25.9583 10.4901C26.2891 10.3684 26.5899 10.2184 26.9083 10.1517C27.2366 10.0834 27.5808 10.0976 27.9349 10.0742C27.9383 10.0276 27.9441 9.97755 27.9441 9.92755C27.9441 8.60672 27.9474 7.28589 27.9383 5.96589ZM7.95494 25.3209C6.98494 25.3209 6.02077 25.3534 5.06077 25.3084C4.51911 25.2826 4.03744 24.7542 4.00577 24.1934C3.96577 23.4817 3.99577 22.7651 3.99577 22.0234H7.95494V25.3209ZM7.95661 20.0009H4.00411V16.0426H7.95661V20.0009ZM7.96327 14.0059H4.00827V10.0509H7.96327V14.0059ZM7.96327 8.02255H3.98661V7.36089C3.98661 6.91422 3.97911 6.46755 3.98911 6.02089C4.00244 5.38755 4.45827 4.78339 5.05827 4.75089C6.01911 4.69922 6.98411 4.73672 7.96327 4.73672V8.02255ZM18.5166 16.5851C17.1841 17.3492 15.8558 18.1192 14.5249 18.8876C14.1658 19.0951 13.8066 19.3042 13.4466 19.5101C12.3541 20.1342 11.3024 19.5317 11.2983 18.2784C11.2949 17.3017 11.2974 16.3251 11.2974 15.3476C11.2974 14.3817 11.2958 13.4151 11.2983 12.4484C11.3016 11.1892 12.3533 10.5851 13.4433 11.2134C15.1424 12.1934 16.8408 13.1759 18.5408 14.1542C18.9966 14.4167 19.2766 14.7884 19.2874 15.3292C19.2983 15.9101 19.0058 16.3042 18.5166 16.5851ZM25.9483 8.01422H21.9666V4.73922C22.0566 4.73172 22.1449 4.71755 22.2333 4.71755C22.9916 4.71589 23.7499 4.71339 24.5083 4.71755C25.4091 4.72255 25.9441 5.25672 25.9474 6.15089C25.9499 6.76422 25.9483 7.37672 25.9483 8.01422Z" fill="#FF782D"/>
<path d="M25.0832 14.1951C23.0474 17.7226 21.0224 21.2309 18.9857 24.7592C20.1557 25.4342 21.2916 26.0901 22.4457 26.7559C24.4866 23.2209 26.5116 19.7126 28.5432 16.1917C27.3699 15.5142 26.2399 14.8626 25.0832 14.1951ZM25.2349 19.2301C25.0432 19.5409 24.6607 19.6001 24.3557 19.4159C24.0674 19.2409 23.9374 18.8826 24.1032 18.5759C24.4382 17.9551 24.7891 17.3417 25.1666 16.7459C25.2641 16.5926 25.4841 16.5159 25.6482 16.4042C26.1757 16.4542 26.5216 16.9551 26.2924 17.3976C25.9674 18.0234 25.6057 18.6309 25.2349 19.2301Z" fill="#FF782D"/>
<path d="M27.9441 23.9117C27.9374 25.885 26.5299 27.3084 24.5599 27.3375C24.2807 27.3409 24.0016 27.3375 23.6449 27.3375C24.0391 26.655 24.3982 26.0267 24.7674 25.405C24.8024 25.3467 24.8999 25.3167 24.9741 25.29C25.6182 25.0634 25.9624 24.6134 25.9399 23.9309C25.9266 23.5184 26.0332 23.1717 26.2441 22.8217C26.8041 21.8909 27.3366 20.9425 27.9216 19.9292C27.9324 20.095 27.9441 20.1809 27.9441 20.2667C27.9449 21.4817 27.9474 22.6967 27.9441 23.9117Z" fill="#FF782D"/>
<path d="M29.7957 14.01C29.6232 14.3508 29.4182 14.675 29.2099 15.0383C28.0407 14.3642 26.9041 13.7083 25.7466 13.0408C25.9707 12.6608 26.1599 12.2908 26.3941 11.9533C26.7641 11.4208 27.4741 11.2567 28.0583 11.5617C28.4899 11.7867 28.9124 12.0308 29.3232 12.2917C29.9157 12.6667 30.1124 13.3858 29.7957 14.01Z" fill="#FF782D"/>
<path d="M21.6966 27.8634C21.5008 28.0067 21.3533 28.1376 21.1858 28.2334C20.5916 28.5734 19.9949 28.9092 19.3916 29.2326C18.9391 29.4759 18.4208 29.2634 18.3924 28.7834C18.3433 27.9351 18.3633 27.0826 18.3583 26.2309C18.3583 26.1617 18.3924 26.0909 18.4233 25.9734C19.5233 26.6084 20.5874 27.2234 21.6966 27.8634Z" fill="#FF782D"/>
</svg>
